<!-- <?xml version="1.0" encoding="UTF-8"?><svg id="Layer_1" xmlns="http://www.w3.org/2000/svg" viewBox="0 0 502.93 463.04"><defs><style>.cls-1{fill:#51def2;}.cls-1,.cls-2,.cls-3,.cls-4,.cls-5,.cls-6,.cls-7{stroke-width:0px;}.cls-2{fill:#0f2138;}.cls-3{fill:#fff;}.cls-4{fill:#fc7385;}.cls-5{fill:#fe415b;}.cls-6{fill:#fcab9b;}.cls-7{fill:#fc816a;}</style></defs><path class="cls-3" d="M376.3,388.55c14.3-15.42,27.07-31.94,36.54-50.84,14.57-29.07,16.7-59.4,9.45-90.73-7.98-34.49-23.2-66.01-40.15-96.78-27.85-50.56-60.02-98.42-92.35-146.17-.73-1.08-1.34-2.13-2.53-4.04h-62.51c-12.8,10.16-25.4,19.9-37.44,29.78-27.31,22.41-53.69,45.78-75.36,73.94-17.37,22.58-28.54,47.59-29.47,76.39-.68,21.09,4.55,41.22,11.91,60.78,14.61,38.82,35.93,74.11,58.01,108.97,23.5,37.09,50.56,77.11,75.58,113.18h63.96c3.52-2.82,6.99-5.57,9.73-7.71,26.31-20.67,51.85-42.2,74.64-66.78ZM177.91,61.84c40.1-.11,80.2-.12,120.29.01,11.71.04,18.96,7.81,18.73,19.31-.2,10.57-7.99,17.84-19.24,17.86-19.8.03-39.6,0-59.4,0-19.97,0-39.93.02-59.9,0-11.37-.02-19.42-7.48-19.63-18.11-.22-10.97,7.61-19.04,19.14-19.08ZM137.47,135.72c2.56-1.03,5.2-1.06,7.86-1.06,61.13-.01,122.26-.03,183.39,0,11.56,0,20.02,8.04,19.88,18.63-.14,10.64-8.63,18.65-19.88,18.66-30.65.03-61.3,0-91.95,0-30.81,0-61.63.02-92.44-.02-9.15-.01-17.11-6.3-18.5-14.41-1.7-9.95,2.79-18.28,11.65-21.83ZM135.46,246.04c-7.58.02-13.64-2.51-17.79-8.98-7.5-11.68.66-27.65,14.52-28.45,1-.06,2-.03,3-.03,76.91,0,153.81,0,230.72,0,12.19,0,20.26,7.83,20,19.28-.22,9.6-7.59,17.43-17.23,18.02-4.48.27-8.99.12-13.48.12-34.96,0-69.92,0-104.87,0-38.29,0-76.57-.05-114.86.04ZM160.76,301.32c.04-10.81,8.11-18.75,19.58-18.76,61.4-.04,122.81-.04,184.21,0,11.46,0,19.31,7.86,19.22,18.94-.08,10.68-8.04,18.16-19.43,18.17-30.79.02-61.57,0-92.36,0-30.45,0-60.91-.25-91.36.13-11.75.15-19.9-8.91-19.87-18.49ZM215.25,395.13c-11.12,0-18.76-5.67-20.62-15.08-2.37-11.99,6.03-22.52,18.26-22.58,20.15-.1,40.3-.03,60.45-.03,19.82,0,39.64-.02,59.45,0,10.96.01,19.04,7.01,19.79,17.04.8,10.69-6.25,18.98-17.44,20.46-1.31.17-2.65.19-3.98.19-38.64,0-77.27.03-115.91,0Z"/><path class="cls-1" d="M175.15,444.27c-4.33-6.26-8.65-12.54-12.95-18.83-2.15-3.14-4.3-6.29-6.44-9.45-4.28-6.31-8.54-12.63-12.76-18.98-18.98-28.57-37.22-57.64-53.62-87.75-14.98-27.5-28.07-55.83-35.5-86.44-12.18-50.18-1.36-95.4,29.26-136.47,21.13-28.34,46.85-52.13,73.71-74.82,4.44-3.75,8.96-7.76,13.38-11.53H0v463.04h188.14c-4.33-6.25-8.67-12.51-13-18.77Z"/><path class="cls-1" d="M359.27,47.76c25.16,38.81,49.61,78.05,69.62,119.83,14.72,30.73,26.59,62.37,30.12,96.62,3.86,37.49-5.03,71.91-24.71,103.78-19.36,31.37-45.23,56.94-72.63,81.13-3.86,3.4-7.86,7.01-11.82,10.49-1.28,1.13-2.56,2.24-3.82,3.33l156.88.11V0h-174.93c10.37,15.82,20.98,31.88,31.27,47.76Z"/><path class="cls-2" d="M94.39,240.89c-7.36-19.57-12.6-39.69-11.91-60.78.93-28.79,12.1-53.81,29.47-76.39,21.67-28.16,48.05-51.53,75.36-73.94,12.04-9.88,24.64-19.62,37.44-29.78h-54.51c-4.42,3.77-8.94,7.78-13.38,11.53-26.86,22.69-52.58,46.48-73.71,74.82-30.62,41.07-41.44,86.29-29.26,136.47,7.43,30.62,20.51,58.94,35.5,86.44,16.4,30.1,34.64,59.17,53.62,87.75,4.22,6.35,8.47,12.67,12.76,18.98,2.14,3.15,4.29,6.3,6.44,9.45,4.3,6.29,8.62,12.56,12.95,18.83,4.33,6.26,8.66,12.52,13,18.77h0,0s39.83,0,39.83,0c-25.02-36.07-52.09-76.09-75.58-113.18-22.08-34.86-43.4-70.15-58.01-108.97Z"/><path class="cls-2" d="M346.04,462.93h0c1.26-1.09,2.54-2.2,3.82-3.33,3.92-3.45,7.89-7.02,11.71-10.4,27.4-24.2,53.27-49.77,72.63-81.13,19.67-31.87,28.57-66.28,24.71-103.78-3.53-34.25-15.4-65.89-30.12-96.62-20.01-41.78-44.46-81.02-69.62-119.83-10.31-15.9-20.95-31.99-31.33-47.85h-40.58c1.19,1.91,1.8,2.96,2.53,4.04,32.33,47.75,64.5,95.6,92.35,146.17,16.95,30.76,32.16,62.28,40.15,96.78,7.25,31.33,5.12,61.66-9.45,90.73-9.47,18.9-22.25,35.42-36.54,50.84-22.79,24.58-48.33,46.11-74.64,66.78-2.73,2.15-6.21,4.89-9.73,7.71h43.5l10.51-.02s.07-.06.1-.09Z"/><path class="cls-5" d="M250.32,245.99c34.96,0,69.92,0,104.87,0,4.49,0,9,.15,13.48-.12,9.63-.59,17.01-8.42,17.23-18.02.26-11.45-7.81-19.27-20-19.28-76.91-.02-153.81,0-230.72,0-1,0-2-.02-3,.03-13.86.8-22.01,16.77-14.52,28.45,4.16,6.48,10.21,9,17.79,8.98,38.29-.09,76.57-.04,114.86-.04Z"/><path class="cls-6" d="M271.98,319.68c30.79,0,61.57.01,92.36,0,11.39,0,19.35-7.49,19.43-18.17.09-11.08-7.77-18.93-19.22-18.94-61.4-.04-122.81-.04-184.21,0-11.47,0-19.54,7.94-19.58,18.76-.03,9.58,8.12,18.64,19.87,18.49,30.45-.38,60.9-.13,91.36-.13Z"/><path class="cls-4" d="M144.32,171.95c30.81.04,61.63.01,92.44.02,30.65,0,61.3.02,91.95,0,11.25,0,19.74-8.03,19.88-18.66.14-10.59-8.32-18.62-19.88-18.63-61.13-.04-122.26-.02-183.39,0-2.66,0-5.29.03-7.86,1.06-8.86,3.54-13.35,11.87-11.65,21.83,1.39,8.11,9.35,14.4,18.5,14.41Z"/><path class="cls-7" d="M335.14,394.94c11.19-1.48,18.24-9.76,17.44-20.46-.75-10.03-8.84-17.02-19.79-17.04-19.82-.03-39.64,0-59.45,0-20.15,0-40.3-.07-60.45.03-12.22.06-20.63,10.59-18.26,22.58,1.86,9.4,9.51,15.07,20.62,15.08,38.64.03,77.27.01,115.91,0,1.33,0,2.67-.02,3.98-.19Z"/><path class="cls-7" d="M178.41,99.02c19.97.03,39.93,0,59.9,0,19.8,0,39.6.03,59.4,0,11.25-.02,19.03-7.29,19.24-17.86.22-11.5-7.03-19.27-18.73-19.31-40.1-.13-80.2-.12-120.29-.01-11.52.03-19.36,8.1-19.14,19.08.22,10.63,8.26,18.09,19.63,18.11Z"/></svg> -->
<svg xmlns="http://www.w3.org/2000/svg" viewBox="0 0 502.93 463.04">
  <path
    fill="#fff"
    d="M376.3 388.55c14.3-15.42 27.07-31.94 36.54-50.84 14.57-29.07 16.7-59.4 9.45-90.73-7.98-34.49-23.2-66.01-40.15-96.78-27.85-50.56-60.02-98.42-92.35-146.17-.73-1.08-1.34-2.13-2.53-4.04h-62.51c-12.8 10.16-25.4 19.9-37.44 29.78-27.31 22.41-53.69 45.78-75.36 73.94-17.37 22.58-28.54 47.59-29.47 76.39-.68 21.09 4.55 41.22 11.91 60.78 14.61 38.82 35.93 74.11 58.01 108.97 23.5 37.09 50.56 77.11 75.58 113.18h63.96c3.52-2.82 6.99-5.57 9.73-7.71 26.31-20.67 51.85-42.2 74.64-66.78ZM177.91 61.84c40.1-.11 80.2-.12 120.29.01 11.71.04 18.96 7.81 18.73 19.31-.2 10.57-7.99 17.84-19.24 17.86-19.8.03-39.6 0-59.4 0-19.97 0-39.93.02-59.9 0-11.37-.02-19.42-7.48-19.63-18.11-.22-10.97 7.61-19.04 19.14-19.08Zm-40.44 73.88c2.56-1.03 5.2-1.06 7.86-1.06 61.13-.01 122.26-.03 183.39 0 11.56 0 20.02 8.04 19.88 18.63-.14 10.64-8.63 18.65-19.88 18.66-30.65.03-61.3 0-91.95 0-30.81 0-61.63.02-92.44-.02-9.15-.01-17.11-6.3-18.5-14.41-1.7-9.95 2.79-18.28 11.65-21.83Zm-2.01 110.32c-7.58.02-13.64-2.51-17.79-8.98-7.5-11.68.66-27.65 14.52-28.45 1-.06 2-.03 3-.03h230.72c12.19 0 20.26 7.83 20 19.28-.22 9.6-7.59 17.43-17.23 18.02-4.48.27-8.99.12-13.48.12H250.33c-38.29 0-76.57-.05-114.86.04Zm25.3 55.28c.04-10.81 8.11-18.75 19.58-18.76 61.4-.04 122.81-.04 184.21 0 11.46 0 19.31 7.86 19.22 18.94-.08 10.68-8.04 18.16-19.43 18.17-30.79.02-61.57 0-92.36 0-30.45 0-60.91-.25-91.36.13-11.75.15-19.9-8.91-19.87-18.49Zm54.49 93.81c-11.12 0-18.76-5.67-20.62-15.08-2.37-11.99 6.03-22.52 18.26-22.58 20.15-.1 40.3-.03 60.45-.03 19.82 0 39.64-.02 59.45 0 10.96.01 19.04 7.01 19.79 17.04.8 10.69-6.25 18.98-17.44 20.46-1.31.17-2.65.19-3.98.19-38.64 0-77.27.03-115.91 0Z"
  />
  <path
    fill="#51def2"
    d="M175.15 444.27c-4.33-6.26-8.65-12.54-12.95-18.83-2.15-3.14-4.3-6.29-6.44-9.45-4.28-6.31-8.54-12.63-12.76-18.98-18.98-28.57-37.22-57.64-53.62-87.75-14.98-27.5-28.07-55.83-35.5-86.44-12.18-50.18-1.36-95.4 29.26-136.47 21.13-28.34 46.85-52.13 73.71-74.82 4.44-3.75 8.96-7.76 13.38-11.53H0v463.04h188.14c-4.33-6.25-8.67-12.51-13-18.77ZM359.27 47.76c25.16 38.81 49.61 78.05 69.62 119.83 14.72 30.73 26.59 62.37 30.12 96.62 3.86 37.49-5.03 71.91-24.71 103.78-19.36 31.37-45.23 56.94-72.63 81.13-3.86 3.4-7.86 7.01-11.82 10.49a503.25 503.25 0 0 1-3.82 3.33l156.88.11V0H327.98c10.37 15.82 20.98 31.88 31.27 47.76Z"
  />
  <path
    fill="#0f2138"
    d="M94.39 240.89c-7.36-19.57-12.6-39.69-11.91-60.78.93-28.79 12.1-53.81 29.47-76.39 21.67-28.16 48.05-51.53 75.36-73.94C199.35 19.9 211.95 10.16 224.75 0h-54.51c-4.42 3.77-8.94 7.78-13.38 11.53C130 34.22 104.28 58.01 83.15 86.35c-30.62 41.07-41.44 86.29-29.26 136.47 7.43 30.62 20.51 58.94 35.5 86.44 16.4 30.1 34.64 59.17 53.62 87.75 4.22 6.35 8.47 12.67 12.76 18.98 2.14 3.15 4.29 6.3 6.44 9.45 4.3 6.29 8.62 12.56 12.95 18.83 4.33 6.26 8.66 12.52 13 18.77s39.83 0 39.83 0c-25.02-36.07-52.09-76.09-75.58-113.18-22.08-34.86-43.4-70.15-58.01-108.97Zm251.65 222.04c1.26-1.09 2.54-2.2 3.82-3.33 3.92-3.45 7.89-7.02 11.71-10.4 27.4-24.2 53.27-49.77 72.63-81.13 19.67-31.87 28.57-66.28 24.71-103.78-3.53-34.25-15.4-65.89-30.12-96.62-20.01-41.78-44.46-81.02-69.62-119.83-10.31-15.9-20.95-31.99-31.33-47.85h-40.58c1.19 1.91 1.8 2.96 2.53 4.04 32.33 47.75 64.5 95.6 92.35 146.17 16.95 30.76 32.16 62.28 40.15 96.78 7.25 31.33 5.12 61.66-9.45 90.73-9.47 18.9-22.25 35.42-36.54 50.84-22.79 24.58-48.33 46.11-74.64 66.78-2.73 2.15-6.21 4.89-9.73 7.71h43.5l10.51-.02s.07-.06.1-.09Z"
  />
  <path
    fill="#fe415b"
    d="M250.32 245.99h104.87c4.49 0 9 .15 13.48-.12 9.63-.59 17.01-8.42 17.23-18.02.26-11.45-7.81-19.27-20-19.28-76.91-.02-153.81 0-230.72 0-1 0-2-.02-3 .03-13.86.8-22.01 16.77-14.52 28.45 4.16 6.48 10.21 9 17.79 8.98 38.29-.09 76.57-.04 114.86-.04Z"
  />
  <path
    fill="#fcab9b"
    d="M271.98 319.68c30.79 0 61.57.01 92.36 0 11.39 0 19.35-7.49 19.43-18.17.09-11.08-7.77-18.93-19.22-18.94-61.4-.04-122.81-.04-184.21 0-11.47 0-19.54 7.94-19.58 18.76-.03 9.58 8.12 18.64 19.87 18.49 30.45-.38 60.9-.13 91.36-.13Z"
  />
  <path
    fill="#fc7385"
    d="M144.32 171.95c30.81.04 61.63.01 92.44.02 30.65 0 61.3.02 91.95 0 11.25 0 19.74-8.03 19.88-18.66.14-10.59-8.32-18.62-19.88-18.63-61.13-.04-122.26-.02-183.39 0-2.66 0-5.29.03-7.86 1.06-8.86 3.54-13.35 11.87-11.65 21.83 1.39 8.11 9.35 14.4 18.5 14.41Z"
  />
  <path
    fill="#fc816a"
    d="M335.14 394.94c11.19-1.48 18.24-9.76 17.44-20.46-.75-10.03-8.84-17.02-19.79-17.04-19.82-.03-39.64 0-59.45 0-20.15 0-40.3-.07-60.45.03-12.22.06-20.63 10.59-18.26 22.58 1.86 9.4 9.51 15.07 20.62 15.08 38.64.03 77.27.01 115.91 0 1.33 0 2.67-.02 3.98-.19ZM178.41 99.02c19.97.03 39.93 0 59.9 0 19.8 0 39.6.03 59.4 0 11.25-.02 19.03-7.29 19.24-17.86.22-11.5-7.03-19.27-18.73-19.31-40.1-.13-80.2-.12-120.29-.01-11.52.03-19.36 8.1-19.14 19.08.22 10.63 8.26 18.09 19.63 18.11Z"
  />
</svg>
