<svg xmlns="http://www.w3.org/2000/svg" viewBox="0 0 2113.171 512.508">
  <path fill="none" stroke="#1e1e1e" stroke-linecap="round" stroke-width="2" d="M10 173.158c24.41.1 46.68.2 77.7 0m-77.7 0c24.03-.68 47.71.1 77.7 0m0 0c-.72 20.91 2.04 45.25 0 73.25m0-73.25c.42 25.25-.52 49.9 0 73.25m0 0c-15.41.95-33.15-.15-77.7 0m77.7 0c-23.63.39-48.57-.4-77.7 0m0 0c-.4-26.44 1.98-54.35 0-73.25m0 73.25c-.79-22.14-.99-45.76 0-73.25m254.7-90.175c32.41 31.55 63.8 62.29 126.6 127m-126.6-127c41.11 41.85 81.99 83.29 126.6 127m0 0c-28.75 27.67-58.77 57.4-126.6 126.6m126.6-126.6c-49.85 50.18-100.14 99.74-126.6 126.6m0 0c-40.27-40-81.7-81.67-127-126.6m127 126.6c-38.48-37.01-74.35-74.04-127-126.6m0 0c49.98-49.49 96.06-93.81 127-127m-127 127c28.52-29.91 56.88-57.7 127-127m475.217 52.558c53.49 54.41 105.35 107.5 182.97 184m-182.97-184c59.5 58.53 119.12 119.84 182.97 184m0 0c-48.35 51.12-99.96 100.11-182.97 182.97m182.97-182.97c-54.03 52.96-106.85 105.75-182.97 182.97m0 0c-52.74-53.16-104.48-107.16-184-182.97m184 182.97c-48.93-48.88-98.29-96.33-184-182.97m0 0c37.28-40.08 77.57-78.98 184-184m-184 184c41.5-40.48 82.09-80.2 184-184m313.806 6.906c52.53-.3 107.33-.17 214.65 0m-214.65 0c80.38 1.86 162.26 1.58 214.65 0m0 0c1.9 42.58 1.2 85.43 0 148.49m0-148.49c.67 37.48.12 73.82 0 148.49m0 0c-45.08-1.12-92.31 1.44-214.65 0m214.65 0c-60.79.32-122.23-.43-214.65 0m0 0c1.77-57.69-.52-115.24 0-148.49m0 148.49c.25-45.06-.12-91.94 0-148.49m41.902 203.711c42.9.18 86.29-1.42 132.15 0m-132.15 0c30.85-.55 62.11-.02 132.15 0m0 0c.07 37.45-.76 78.41 0 112.54m0-112.54c.32 43.82-.4 87.44 0 112.54m0 0c-43.28.02-85.48.37-132.15 0m132.15 0c-37.08 1.3-71.52.49-132.15 0m0 0c-2-33.17-.22-63.15 0-112.54m0 112.54c-.44-33.52-1.39-66.77 0-112.54m234.36-189.281c67.1-1.42 130.32-1.94 215.62 0m-215.62 0c80.38.05 161.3-.56 215.62 0m0 0c-1.16 31.15 1.65 62.41 0 121.48m0-121.48c-1.04 43.76.04 88.08 0 121.48m0 0c-46.11 2.44-92.08.95-215.62 0m215.62 0c-83.95-.52-169.51.42-215.62 0m0 0c1.14-31.39.86-62.49 0-121.48m0 121.48c-.99-45.44.58-88.7 0-121.48m366.132-1.909c60.86-.61 125.77.87 199.08 0m-199.08 0c68.42-1.64 135.45-1.99 199.08 0m0 0c1.16 27.37.6 52.81 0 120.07m0-120.07c-.81 37.29-1.91 73.35 0 120.07m0 0c-71.92 1.35-140.93-.29-199.08 0m199.08 0c-61.25-1.14-122.54-2.28-199.08 0m0 0c-.22-26.56 1.28-54.96 0-120.07m0 120.07c1.73-29.78.59-62.22 0-120.07m326.101 23.785c20.25.31 38.41.65 80.95 0m-80.95 0c31.49-.3 63.12-.72 80.95 0m0 0c1.84 21.92.76 42.69 0 69.89m0-69.89c-.72 20.19.74 40.91 0 69.89m0 0c-28.61-1.87-60.79 1.6-80.95 0m80.95 0c-18.66-.53-37.25.35-80.95 0m0 0c1.42-22.02-.84-46.31 0-69.89m0 69.89c-.89-17.45.4-33.56 0-69.89"/>
  <g fill="none" stroke="#1e1e1e" stroke-linecap="round" stroke-width="2">
    <path d="M87.91 210.783c8.43-.04 41.31.25 49.71.14m-47.66-.93c8.37-.42 38.69-.86 46.66-.6"/>
    <path d="M113.32 217.733c5.47-1.77 11.25-2.38 23.3-8.34m-23.3 8.34c6.81-3.2 15.34-4.5 23.3-8.34m-23.21-8.59c5.58 1.65 11.34 4.46 23.21 8.59m-23.21-8.59c6.71 2.3 15.2 6.49 23.21 8.59"/>
  </g>
  <g fill="none" stroke="#1e1e1e" stroke-linecap="round" stroke-width="2" mask="url(#a)">
    <path d="M328.98 140.851c35.98-19.57 32.17-118.93 215.68-118.06 183.5.88 737.85 102.83 885.34 123.3m-1102.53-5.69c35.9-19.99 32.96-120.73 216.54-119.58 183.58 1.16 737.38 105.6 884.94 126.52m-24.57 4.64c8.65-.33 14.03-3.47 24.57-4.64m-24.57 4.64c7.33-.33 14.68-1.95 24.57-4.64"/>
    <path d="M1407.15 135.101c7.96 4.33 12.57 5.84 21.8 12.24m-21.8-12.24c6.39 4.55 12.94 7.82 21.8 12.24"/>
  </g>
  <mask id="a">
    <path fill="#fff" d="M0 0h1530.563v363.427H0z"/>
    <path d="M516.799 10h54.6v25h-54.6z"/>
  </mask>
  <g fill="none" stroke="#1e1e1e" stroke-linecap="round" stroke-width="2" mask="url(#b)">
    <path d="M349.349 254.584c20.73 10.58 89.43 53.68 123.7 64.32 34.27 10.63 68.07-.7 81.92-.5m-206.78-64.71c20.52 11.29 88.76 55.73 123.62 66.68 34.86 10.95 71.45-.6 85.56-.98m-22.14 11.62c6.87-4.44 12.66-8.49 22.14-11.62m-22.14 11.62c5.89-2.47 10.83-5.9 22.14-11.62"/>
    <path d="M532.939 314.074c7.7.51 14.16 1.42 24.43 5.32m-24.43-5.32c6.49 1.71 12 2.49 24.43 5.32"/>
  </g>
  <mask id="b">
    <path fill="#fff" d="M0 0h656.917v420.024H0z"/>
    <path d="M423.691 306.524h99.833v25h-99.833z"/>
  </mask>
  <g fill="none" stroke="#1e1e1e" stroke-linecap="round" stroke-width="2" mask="url(#c)">
    <path d="M877.452 273.533c18.35-6.49 81.96-31.23 111.21-38.53 29.25-7.3 53.52-4.35 64.27-5.29m-173.57 42.71c18.67-6.37 82.69-28.8 111.51-36.21 28.82-7.42 50.94-6.78 61.41-8.28"/>
    <path d="M1029.592 238.423c7.64-5.11 14.68-6.81 22.69-10.49m-22.69 10.49c8.63-4.14 16.73-8.35 22.69-10.49"/>
    <path d="M1028.152 221.383c8.18.81 15.72 5.01 24.13 6.55m-24.13-6.55c9.26 2.47 17.92 4.89 24.13 6.55"/>
  </g>
  <mask id="c">
    <path fill="#fff" d="M0 0h1152.723v418.654H0z"/>
    <path d="M952.008 223.12h75.2v25h-75.2z"/>
  </mask>
  <g fill="none" stroke="#1e1e1e" stroke-linecap="round" stroke-width="2" mask="url(#d)">
    <path d="M877.062 364.776c18.73 6.37 76.33 32.32 112.76 38.72 36.42 6.39 88.27-.17 105.79-.34m-216.84-36.09c18.63 6.07 74.16 29.18 110.21 34.86 36.06 5.69 88.44-1.02 106.13-.73"/>
    <path d="M1072.032 410.826c4.83-1.9 13.49-3.88 23.08-9.63m-23.08 9.63c7.48-3.55 16.88-6.53 23.08-9.63m-23.87-7.45c5.01 2.43 13.87 4.78 23.87 7.45m-23.87-7.45c7.74 2.61 17.43 5.8 23.87 7.45"/>
  </g>
  <mask id="d">
    <path fill="#fff" d="M0 0h1196.125v502.429H0z"/>
    <path d="M956.741 389.929h65.733v25h-65.733z"/>
  </mask>
  <g fill="none" stroke="#1e1e1e" stroke-linecap="round" stroke-width="2">
    <path d="M1269.472 224.444c7.89-.04 39.07-.79 46.82-1m-47.44.77c7.88-.17 39.33-1.49 47.12-1.57"/>
    <path d="M1294.262 231.244c5.71-1.51 10.23-3.97 21.71-8.6m-21.71 8.6c6.81-2.41 12.93-5.45 21.71-8.6m-22.15-7.37c5.76 2.02 10.38 3.1 22.15 7.37m-22.15-7.37c6.87 2.49 13.13 4.36 22.15 7.37"/>
  </g>
  <g fill="none" stroke="#1e1e1e" stroke-linecap="round" stroke-width="2">
    <path d="M1228.765 402.66c32.39-20.53 161.87-102.35 194.07-122.85M1227.565 402c32.2-19.81 161.44-100.43 194.23-120.61m-15.46 19.65c5.95-6.6 9.79-14.28 15.46-19.65m-15.46 19.65c3.63-6.2 9.63-11.79 15.46-19.65"/>
    <path d="M1397.325 286.5c8.94-2.01 15.64-5.08 24.47-5.11m-24.47 5.11c6.3-1.96 14.96-3.28 24.47-5.11"/>
  </g>
  <g fill="none" stroke="#1e1e1e" stroke-linecap="round" stroke-width="2">
    <path d="M1545.562 216.065c23.52.11 118.54.85 141.99.83m-140.33-1.92c23.4-.25 115.96-.27 139.52.07"/>
    <path d="M1663.202 223.455c6.59-1.75 14.31-6.35 23.54-8.41m-23.54 8.41c6.94-2.44 12.32-3.48 23.54-8.41m-23.44-8.69c6.58 3.13 14.26 3.42 23.44 8.69m-23.44-8.69c7.02 2.08 12.37 5.57 23.44 8.69"/>
  </g>
  <g fill="none" stroke="#1e1e1e" stroke-linecap="round" stroke-width="2">
    <path d="M1896.47 215.036c20.83-.16 102.79-1.33 123.7-1.56m-125.02.79c21.28.02 106.11.42 127.18.53m-23.54 8.43c5.91-3.6 9.35-2.48 23.54-8.43m-23.54 8.43c6.51-1.39 12.35-4.64 23.54-8.43"/>
    <path d="M1998.88 206.126c5.87.05 9.3 4.82 23.45 8.67m-23.45-8.67c6.61 3.44 12.43 5.03 23.45 8.67"/>
  </g>
  <text x="28.35" y="17.52" fill="#1e1e1e" dominant-baseline="alphabetic" font-family="Virgil, Segoe UI Emoji" font-size="20" style="white-space:pre" text-anchor="middle" transform="translate(20.5 197.283)">Start</text>
  <text x="56.617" y="17.52" fill="#1e1e1e" dominant-baseline="alphabetic" font-family="Virgil, Segoe UI Emoji" font-size="20" style="white-space:pre" text-anchor="middle" transform="translate(207.983 159.883)">Check URL </text>
  <text x="56.617" y="42.52" fill="#1e1e1e" dominant-baseline="alphabetic" font-family="Virgil, Segoe UI Emoji" font-size="20" style="white-space:pre" text-anchor="middle" transform="translate(207.983 159.883)">for </text>
  <text x="56.617" y="67.52" fill="#1e1e1e" dominant-baseline="alphabetic" font-family="Virgil, Segoe UI Emoji" font-size="20" style="white-space:pre" text-anchor="middle" transform="translate(207.983 159.883)">language </text>
  <text x="56.617" y="92.52" fill="#1e1e1e" dominant-baseline="alphabetic" font-family="Virgil, Segoe UI Emoji" font-size="20" style="white-space:pre" text-anchor="middle" transform="translate(207.983 159.883)">code&apos;</text>
  <text x="74.817" y="17.52" fill="#1e1e1e" dominant-baseline="alphabetic" font-family="Virgil, Segoe UI Emoji" font-size="20" style="white-space:pre" text-anchor="middle" transform="translate(664.342 243.783)">Next.js server </text>
  <text x="74.817" y="42.52" fill="#1e1e1e" dominant-baseline="alphabetic" font-family="Virgil, Segoe UI Emoji" font-size="20" style="white-space:pre" text-anchor="middle" transform="translate(664.342 243.783)">midldleware </text>
  <text x="74.817" y="67.52" fill="#1e1e1e" dominant-baseline="alphabetic" font-family="Virgil, Segoe UI Emoji" font-size="20" style="white-space:pre" text-anchor="middle" transform="translate(664.342 243.783)">checks </text>
  <text x="74.817" y="92.52" fill="#1e1e1e" dominant-baseline="alphabetic" font-family="Virgil, Segoe UI Emoji" font-size="20" style="white-space:pre" text-anchor="middle" transform="translate(664.342 243.783)">&apos;Accept-</text>
  <text x="74.817" y="117.52" fill="#1e1e1e" dominant-baseline="alphabetic" font-family="Virgil, Segoe UI Emoji" font-size="20" style="white-space:pre" text-anchor="middle" transform="translate(664.342 243.783)">Language&apos;</text>
  <text x="74.817" y="142.52" fill="#1e1e1e" dominant-baseline="alphabetic" font-family="Virgil, Segoe UI Emoji" font-size="20" style="white-space:pre" text-anchor="middle" transform="translate(664.342 243.783)">header&apos;</text>
  <text x="66.833" y="34.016" fill="#1e1e1e" dominant-baseline="alphabetic" font-family="Virgil, Segoe UI Emoji" font-size="16" style="white-space:pre" text-anchor="middle" transform="translate(1094.214 196.692)">Choose Language</text>
  <text x="59.95" y="17.52" fill="#1e1e1e" dominant-baseline="alphabetic" font-family="Virgil, Segoe UI Emoji" font-size="20" style="white-space:pre" text-anchor="middle" transform="translate(1101.75 377.43)">Default to </text>
  <text x="59.95" y="42.52" fill="#1e1e1e" dominant-baseline="alphabetic" font-family="Virgil, Segoe UI Emoji" font-size="20" style="white-space:pre" text-anchor="middle" transform="translate(1101.75 377.43)">English 🇬🇧</text>
  <text x="99.35" y="17.52" fill="#1e1e1e" dominant-baseline="alphabetic" font-family="Virgil, Segoe UI Emoji" font-size="20" style="white-space:pre" text-anchor="middle" transform="translate(1338.444 192.615)">Pass &apos;lang&apos; prop to </text>
  <text x="99.35" y="42.52" fill="#1e1e1e" dominant-baseline="alphabetic" font-family="Virgil, Segoe UI Emoji" font-size="20" style="white-space:pre" text-anchor="middle" transform="translate(1338.444 192.615)">Next.js pages</text>
  <text x="77.283" y="17.52" fill="#1e1e1e" dominant-baseline="alphabetic" font-family="Virgil, Segoe UI Emoji" font-size="20" style="white-space:pre" text-anchor="middle" transform="translate(1718.375 190.004)">Fetch Content </text>
  <text x="77.283" y="42.52" fill="#1e1e1e" dominant-baseline="alphabetic" font-family="Virgil, Segoe UI Emoji" font-size="20" style="white-space:pre" text-anchor="middle" transform="translate(1718.375 190.004)">from Contentful</text>
  <text x="29.883" y="17.52" fill="#1e1e1e" dominant-baseline="alphabetic" font-family="Virgil, Segoe UI Emoji" font-size="20" style="white-space:pre" text-anchor="middle" transform="translate(2032.811 201.199)">render</text>
  <text x="27.3" y="17.52" fill="#1e1e1e" dominant-baseline="alphabetic" font-family="Virgil, Segoe UI Emoji" font-size="20" style="white-space:pre" text-anchor="middle" transform="translate(516.799 10)">Found</text>
  <text x="49.917" y="17.52" fill="#1e1e1e" dominant-baseline="alphabetic" font-family="Virgil, Segoe UI Emoji" font-size="20" style="white-space:pre" text-anchor="middle" transform="translate(423.691 306.524)">Not Found</text>
  <text x="37.6" y="17.52" fill="#1e1e1e" dominant-baseline="alphabetic" font-family="Virgil, Segoe UI Emoji" font-size="20" style="white-space:pre" text-anchor="middle" transform="translate(952.008 223.12)">Present</text>
  <text x="32.867" y="17.52" fill="#1e1e1e" dominant-baseline="alphabetic" font-family="Virgil, Segoe UI Emoji" font-size="20" style="white-space:pre" text-anchor="middle" transform="translate(956.741 389.93)">Absent</text>
</svg>
